<?xml version="1.0" encoding="UTF-8" standalone="no"?>
<!DOCTYPE svg PUBLIC "-//W3C//DTD SVG 1.1//EN"
 "http://www.w3.org/Graphics/SVG/1.1/DTD/svg11.dtd">
<!-- Generated by graphviz version 15.1.1 (20260805.0921)
 -->
<!-- Title: methodology_pipeline Pages: 1 -->
<svg width="361pt" height="640pt"
 viewBox="0.00 0.00 361.00 640.00" xmlns="http://www.w3.org/2000/svg" xmlns:xlink="http://www.w3.org/1999/xlink">
<g id="graph0" class="graph" transform="scale(1 1) rotate(0) translate(25.2 614.65)">
<title>methodology_pipeline</title>
<text xml:space="preserve" text-anchor="middle" x="155.48" y="-575.95" font-family="Helvetica,sans-Serif" font-size="10.00" fill="#333333">Methodology Pipeline (241/241 Parity)</text>
<!-- s1 -->
<g id="node1" class="node">
<title>s1</title>
<path fill="#e8f0fe" stroke="#1a73e8" d="M127.92,-570.2C127.92,-570.2 75,-570.2 75,-570.2 69,-570.2 63,-564.2 63,-558.2 63,-558.2 63,-542.24 63,-542.24 63,-536.24 69,-530.24 75,-530.24 75,-530.24 127.92,-530.24 127.92,-530.24 133.92,-530.24 139.92,-536.24 139.92,-542.24 139.92,-542.24 139.92,-558.2 139.92,-558.2 139.92,-564.2 133.92,-570.2 127.92,-570.2"/>
<text xml:space="preserve" text-anchor="middle" x="101.46" y="-555.64" font-family="Helvetica,sans-Serif" font-size="8.50">1. Scrape</text>
<text xml:space="preserve" text-anchor="middle" x="101.46" y="-546.64" font-family="Helvetica,sans-Serif" font-size="8.50">nltk.org/api</text>
<text xml:space="preserve" text-anchor="middle" x="101.46" y="-537.64" font-family="Helvetica,sans-Serif" font-size="8.50">(HTML index)</text>
</g>
<!-- s2 -->
<g id="node2" class="node">
<title>s2</title>
<path fill="#fef7e0" stroke="#e8a317" d="M126.04,-489.99C126.04,-489.99 76.88,-489.99 76.88,-489.99 70.88,-489.99 64.88,-483.99 64.88,-477.99 64.88,-477.99 64.88,-465.99 64.88,-465.99 64.88,-459.99 70.88,-453.99 76.88,-453.99 76.88,-453.99 126.04,-453.99 126.04,-453.99 132.04,-453.99 138.04,-459.99 138.04,-465.99 138.04,-465.99 138.04,-477.99 138.04,-477.99 138.04,-483.99 132.04,-489.99 126.04,-489.99"/>
<text xml:space="preserve" text-anchor="middle" x="101.46" y="-472.92" font-family="Helvetica,sans-Serif" font-size="8.50">241 modules</text>
<text xml:space="preserve" text-anchor="middle" x="101.46" y="-463.92" font-family="Helvetica,sans-Serif" font-size="8.50">enumerated</text>
</g>
<!-- s1&#45;&gt;s2 -->
<g id="edge1" class="edge">
<title>s1&#45;&gt;s2</title>
<path fill="none" stroke="#555555" stroke-width="0.9" d="M101.46,-530.07C101.46,-530.07 101.46,-498.82 101.46,-498.82"/>
<polygon fill="#555555" stroke="#555555" stroke-width="0.9" points="103.91,-498.82 101.46,-491.82 99.01,-498.82 103.91,-498.82"/>
<text xml:space="preserve" text-anchor="middle" x="128.46" y="-507.59" font-family="Helvetica,sans-Serif" font-size="7.00"> &#160;parse headings </text>
</g>
<!-- s3 -->
<g id="node3" class="node">
<title>s3</title>
<path fill="#e6f4ea" stroke="#1e8e3e" d="M136.92,-413.74C136.92,-413.74 66,-413.74 66,-413.74 60,-413.74 54,-407.74 54,-401.74 54,-401.74 54,-385.78 54,-385.78 54,-379.78 60,-373.78 66,-373.78 66,-373.78 136.92,-373.78 136.92,-373.78 142.92,-373.78 148.92,-379.78 148.92,-385.78 148.92,-385.78 148.92,-401.74 148.92,-401.74 148.92,-407.74 142.92,-413.74 136.92,-413.74"/>
<text xml:space="preserve" text-anchor="middle" x="101.46" y="-399.19" font-family="Helvetica,sans-Serif" font-size="8.50">parity&#45;checklist.py</text>
<text xml:space="preserve" text-anchor="middle" x="101.46" y="-390.19" font-family="Helvetica,sans-Serif" font-size="8.50">+ src/_parity.ts</text>
<text xml:space="preserve" text-anchor="middle" x="101.46" y="-381.19" font-family="Helvetica,sans-Serif" font-size="8.50">COVERED dict</text>
</g>
<!-- s2&#45;&gt;s3 -->
<g id="edge2" class="edge">
<title>s2&#45;&gt;s3</title>
<path fill="none" stroke="#555555" stroke-width="0.9" d="M101.46,-453.85C101.46,-453.85 101.46,-422.37 101.46,-422.37"/>
<polygon fill="#555555" stroke="#555555" stroke-width="0.9" points="103.91,-422.37 101.46,-415.37 99.01,-422.37 103.91,-422.37"/>
<text xml:space="preserve" text-anchor="middle" x="111.58" y="-431.34" font-family="Helvetica,sans-Serif" font-size="7.00"> &#160;emit </text>
</g>
<!-- s4 -->
<g id="node4" class="node">
<title>s4</title>
<polygon fill="#fce8e6" stroke="#c5221f" points="101.46,-340.78 40.4,-306.58 101.46,-272.38 162.52,-306.58 101.46,-340.78"/>
<text xml:space="preserve" text-anchor="middle" x="101.46" y="-307.98" font-family="Helvetica,sans-Serif" font-size="8.00">Classification</text>
<text xml:space="preserve" text-anchor="middle" x="101.46" y="-298.98" font-family="Helvetica,sans-Serif" font-size="8.00">real port &#160;vs &#160;shim</text>
</g>
<!-- s3&#45;&gt;s4 -->
<g id="edge3" class="edge">
<title>s3&#45;&gt;s4</title>
<path fill="none" stroke="#555555" stroke-width="0.9" d="M101.46,-373.54C101.46,-373.54 101.46,-349.4 101.46,-349.4"/>
<polygon fill="#555555" stroke="#555555" stroke-width="0.9" points="103.91,-349.4 101.46,-342.4 99.01,-349.4 103.91,-349.4"/>
</g>
<!-- s5a -->
<g id="node5" class="node">
<title>s5a</title>
<path fill="#e6f4ea" stroke="#1e8e3e" d="M105.29,-232.13C105.29,-232.13 27.62,-232.13 27.62,-232.13 21.62,-232.13 15.62,-226.13 15.62,-220.13 15.62,-220.13 15.62,-204.17 15.62,-204.17 15.62,-198.17 21.62,-192.17 27.62,-192.17 27.62,-192.17 105.29,-192.17 105.29,-192.17 111.29,-192.17 117.29,-198.17 117.29,-204.17 117.29,-204.17 117.29,-220.13 117.29,-220.13 117.29,-226.13 111.29,-232.13 105.29,-232.13"/>
<text xml:space="preserve" text-anchor="middle" x="66.46" y="-217.58" font-family="Helvetica,sans-Serif" font-size="8.50">Real port</text>
<text xml:space="preserve" text-anchor="middle" x="66.46" y="-208.58" font-family="Helvetica,sans-Serif" font-size="8.50">TS + Rust/WASM</text>
<text xml:space="preserve" text-anchor="middle" x="66.46" y="-199.58" font-family="Helvetica,sans-Serif" font-size="8.50">(full implementation)</text>
</g>
<!-- s4&#45;&gt;s5a -->
<g id="edge4" class="edge">
<title>s4&#45;&gt;s5a</title>
<path fill="none" stroke="#555555" stroke-width="0.9" d="M78.85,-284.68C78.85,-284.68 78.85,-240.68 78.85,-240.68"/>
<polygon fill="#555555" stroke="#555555" stroke-width="0.9" points="81.3,-240.68 78.85,-233.68 76.4,-240.68 81.3,-240.68"/>
<text xml:space="preserve" text-anchor="middle" x="110.08" y="-249.73" font-family="Helvetica,sans-Serif" font-size="7.00"> portable </text>
</g>
<!-- s5b -->
<g id="node6" class="node">
<title>s5b</title>
<path fill="#fef7e0" stroke="#e8a317" d="M211.29,-232.13C211.29,-232.13 151.62,-232.13 151.62,-232.13 145.62,-232.13 139.62,-226.13 139.62,-220.13 139.62,-220.13 139.62,-204.17 139.62,-204.17 139.62,-198.17 145.62,-192.17 151.62,-192.17 151.62,-192.17 211.29,-192.17 211.29,-192.17 217.29,-192.17 223.29,-198.17 223.29,-204.17 223.29,-204.17 223.29,-220.13 223.29,-220.13 223.29,-226.13 217.29,-232.13 211.29,-232.13"/>
<text xml:space="preserve" text-anchor="middle" x="181.46" y="-217.58" font-family="Helvetica,sans-Serif" font-size="8.50">Shim</text>
<text xml:space="preserve" text-anchor="middle" x="181.46" y="-208.58" font-family="Helvetica,sans-Serif" font-size="8.50">throw + JS hint</text>
<text xml:space="preserve" text-anchor="middle" x="181.46" y="-199.58" font-family="Helvetica,sans-Serif" font-size="8.50">(GUI / external)</text>
</g>
<!-- s4&#45;&gt;s5b -->
<g id="edge5" class="edge">
<title>s4&#45;&gt;s5b</title>
<path fill="none" stroke="#555555" stroke-width="0.9" d="M151.07,-299.79C151.07,-299.79 151.07,-240.96 151.07,-240.96"/>
<polygon fill="#555555" stroke="#555555" stroke-width="0.9" points="153.52,-240.96 151.07,-233.96 148.62,-240.96 153.52,-240.96"/>
<text xml:space="preserve" text-anchor="middle" x="183.33" y="-249.73" font-family="Helvetica,sans-Serif" font-size="7.00"> GUI / net </text>
</g>
<!-- s6 -->
<g id="node7" class="node">
<title>s6</title>
<path fill="#e8f0fe" stroke="#1a73e8" d="M163.17,-151.92C163.17,-151.92 63.75,-151.92 63.75,-151.92 57.75,-151.92 51.75,-145.92 51.75,-139.92 51.75,-139.92 51.75,-123.96 51.75,-123.96 51.75,-117.96 57.75,-111.96 63.75,-111.96 63.75,-111.96 163.17,-111.96 163.17,-111.96 169.17,-111.96 175.17,-117.96 175.17,-123.96 175.17,-123.96 175.17,-139.92 175.17,-139.92 175.17,-145.92 169.17,-151.92 163.17,-151.92"/>
<text xml:space="preserve" text-anchor="middle" x="113.46" y="-137.37" font-family="Helvetica,sans-Serif" font-size="8.50">Harness</text>
<text xml:space="preserve" text-anchor="middle" x="113.46" y="-128.37" font-family="Helvetica,sans-Serif" font-size="8.50">Bun test &#160;vs &#160;Python .venv</text>
<text xml:space="preserve" text-anchor="middle" x="113.46" y="-119.36" font-family="Helvetica,sans-Serif" font-size="8.50">(API + output parity)</text>
</g>
<!-- s5a&#45;&gt;s6 -->
<g id="edge6" class="edge">
<title>s5a&#45;&gt;s6</title>
<path fill="none" stroke="#555555" stroke-width="0.9" d="M84.52,-191.91C84.52,-191.91 84.52,-160.54 84.52,-160.54"/>
<polygon fill="#555555" stroke="#555555" stroke-width="0.9" points="86.97,-160.54 84.52,-153.54 82.07,-160.54 86.97,-160.54"/>
</g>
<!-- s5b&#45;&gt;s6 -->
<g id="edge7" class="edge">
<title>s5b&#45;&gt;s6</title>
<path fill="none" stroke="#555555" stroke-width="0.9" stroke-dasharray="5,2" d="M157.4,-191.91C157.4,-191.91 157.4,-160.54 157.4,-160.54"/>
<polygon fill="#555555" stroke="#555555" stroke-width="0.9" points="159.85,-160.54 157.4,-153.54 154.95,-160.54 159.85,-160.54"/>
<text xml:space="preserve" text-anchor="middle" x="191.33" y="-169.52" font-family="Helvetica,sans-Serif" font-size="7.00"> &#160;intentional throw </text>
</g>
<!-- s7 -->
<g id="node8" class="node">
<title>s7</title>
<path fill="#f3e8fd" stroke="#7c4dff" d="M172.17,-71.71C172.17,-71.71 54.75,-71.71 54.75,-71.71 48.75,-71.71 42.75,-65.71 42.75,-59.71 42.75,-59.71 42.75,-47.71 42.75,-47.71 42.75,-41.71 48.75,-35.71 54.75,-35.71 54.75,-35.71 172.17,-35.71 172.17,-35.71 178.17,-35.71 184.17,-41.71 184.17,-47.71 184.17,-47.71 184.17,-59.71 184.17,-59.71 184.17,-65.71 178.17,-71.71 172.17,-71.71"/>
<text xml:space="preserve" text-anchor="middle" x="113.46" y="-54.64" font-family="Helvetica,sans-Serif" font-size="8.50">docs/PARITY_CHECKLIST.md</text>
<text xml:space="preserve" text-anchor="middle" x="113.46" y="-45.64" font-family="Helvetica,sans-Serif" font-size="8.50">241/241 &#160;· &#160;CI gate</text>
</g>
<!-- s6&#45;&gt;s7 -->
<g id="edge8" class="edge">
<title>s6&#45;&gt;s7</title>
<path fill="none" stroke="#555555" stroke-width="0.9" d="M113.46,-111.79C113.46,-111.79 113.46,-80.54 113.46,-80.54"/>
<polygon fill="#555555" stroke="#555555" stroke-width="0.9" points="115.91,-80.54 113.46,-73.54 111.01,-80.54 115.91,-80.54"/>
<text xml:space="preserve" text-anchor="middle" x="137.83" y="-89.31" font-family="Helvetica,sans-Serif" font-size="7.00"> &#160;241/241 pass </text>
</g>
<!-- s7&#45;&gt;s3 -->
<g id="edge9" class="edge">
<title>s7&#45;&gt;s3</title>
<path fill="none" stroke="#7c4dff" stroke-width="0.8" stroke-dasharray="1,5" d="M42.41,-54C23.29,-54 7.81,-54 7.81,-54 7.81,-54 7.81,-394 7.81,-394 7.81,-394 45.33,-394 45.33,-394"/>
<polygon fill="#7c4dff" stroke="#7c4dff" stroke-width="0.8" points="45.33,-396.45 52.33,-394 45.33,-391.55 45.33,-396.45"/>
<text xml:space="preserve" text-anchor="middle" x="289.21" y="-209.63" font-family="Helvetica,sans-Serif" font-size="7.00"> &#160;regenerates </text>
</g>
<!-- note -->
<g id="node9" class="node">
<title>note</title>
<path fill="#f8f9fa" stroke="none" stroke-width="0.8" d="M220.35,-19.71C220.35,-19.71 6.57,-19.71 6.57,-19.71 3.28,-19.71 0,-16.43 0,-13.14 0,-13.14 0,-6.57 0,-6.57 0,-3.28 3.29,0 6.57,0 6.57,0 220.35,0 220.35,0 223.63,0 226.92,-3.29 226.92,-6.57 226.92,-6.57 226.92,-13.14 226.92,-13.14 226.92,-16.43 223.63,-19.71 220.35,-19.71"/>
<text xml:space="preserve" text-anchor="middle" x="113.46" y="-7.06" font-family="Helvetica,sans-Serif" font-size="6.50" fill="#666666">GUI = app/draw · external = downloader/data requiring network/corpus</text>
</g>
</g>
</svg>
